<svg xmlns="http://www.w3.org/2000/svg" width="36" height="36" viewBox="0 0 36 36">
  <g id="baseline-notification_important-24px" transform="translate(-1036 -639)" opacity="0.65">
    <path id="Path_2143" data-name="Path 2143" d="M25,22.75v-7.5c0-4.6-2.46-8.46-6.75-9.48V4.75a2.25,2.25,0,0,0-4.5,0V5.77C9.445,6.79,7,10.63,7,15.25v7.5l-3,3v1.5H28v-1.5Zm-7.5,0h-3v-3h3Zm0-6h-3v-6h3Zm-1.5,15a3.009,3.009,0,0,0,3-3H13A3,3,0,0,0,16,31.75Z" transform="translate(1038 640.25)" fill="#fff"/>
    <path id="Path_2144" data-name="Path 2144" d="M0,0H36V36H0Z" transform="translate(1036 639)" fill="none"/>
  </g>
</svg>
